<?xml version="1.0" encoding="UTF-8" standalone="no"?>
<!DOCTYPE svg PUBLIC "-//W3C//DTD SVG 1.1//EN"
 "http://www.w3.org/Graphics/SVG/1.1/DTD/svg11.dtd">
<!-- Generated by graphviz version 2.44.0 (0)
 -->
<!-- Title: dependency&#45;cruiser output Pages: 1 -->
<svg width="350pt" height="110pt"
 viewBox="0.00 0.00 350.00 110.00" xmlns="http://www.w3.org/2000/svg" xmlns:xlink="http://www.w3.org/1999/xlink">
<g id="graph0" class="graph" transform="scale(1 1) rotate(0) translate(4 106)">
<title>dependency&#45;cruiser output</title>
<polygon fill="white" stroke="transparent" points="-4,4 -4,-106 346,-106 346,4 -4,4"/>
<g id="clust1" class="cluster">
<title>cluster_components</title>
<path fill="#ffffff" stroke="black" stroke-width="2" d="M20,-8C20,-8 322,-8 322,-8 328,-8 334,-14 334,-20 334,-20 334,-82 334,-82 334,-88 328,-94 322,-94 322,-94 20,-94 20,-94 14,-94 8,-88 8,-82 8,-82 8,-20 8,-20 8,-14 14,-8 20,-8"/>
<text text-anchor="middle" x="171" y="-82.8" font-family="Helvetica,sans-Serif" font-weight="bold" font-size="9.00">components</text>
</g>
<g id="clust2" class="cluster">
<title>cluster_components/support</title>
<path fill="#ffffff" stroke="black" stroke-width="2" d="M268,-16C268,-16 314,-16 314,-16 320,-16 326,-22 326,-28 326,-28 326,-56 326,-56 326,-62 320,-68 314,-68 314,-68 268,-68 268,-68 262,-68 256,-62 256,-56 256,-56 256,-28 256,-28 256,-22 262,-16 268,-16"/>
<text text-anchor="middle" x="291" y="-56.8" font-family="Helvetica,sans-Serif" font-weight="bold" font-size="9.00">support</text>
</g>
<!-- components/components.stories.tsx -->
<g id="node1" class="node">
<title>components/components.stories.tsx</title>
<g id="a_node1"><a xlink:href="components/components.stories.tsx" xlink:title="components.stories.tsx">
<path fill="#bbfeff" stroke="black" d="M132,-68C132,-68 22,-68 22,-68 19,-68 16,-65 16,-62 16,-62 16,-56 16,-56 16,-53 19,-50 22,-50 22,-50 132,-50 132,-50 135,-50 138,-53 138,-56 138,-56 138,-62 138,-62 138,-65 135,-68 132,-68"/>
<text text-anchor="middle" x="77" y="-56.8" font-family="Helvetica,sans-Serif" font-size="9.00">components.stories.tsx</text>
</a>
</g>
</g>
<!-- components/dataTable.tsx -->
<g id="node2" class="node">
<title>components/dataTable.tsx</title>
<g id="a_node2"><a xlink:href="components/dataTable.tsx" xlink:title="dataTable.tsx">
<path fill="#bbfeff" stroke="black" d="M231.5,-38C231.5,-38 167.5,-38 167.5,-38 164.5,-38 161.5,-35 161.5,-32 161.5,-32 161.5,-26 161.5,-26 161.5,-23 164.5,-20 167.5,-20 167.5,-20 231.5,-20 231.5,-20 234.5,-20 237.5,-23 237.5,-26 237.5,-26 237.5,-32 237.5,-32 237.5,-35 234.5,-38 231.5,-38"/>
<text text-anchor="middle" x="199.5" y="-26.8" font-family="Helvetica,sans-Serif" font-size="9.00">dataTable.tsx</text>
</a>
</g>
</g>
<!-- components/components.stories.tsx&#45;&gt;components/dataTable.tsx -->
<g id="edge1" class="edge">
<title>components/components.stories.tsx&#45;&gt;components/dataTable.tsx</title>
<path fill="none" stroke="#000000" stroke-width="2" stroke-opacity="0.200000" d="M114.15,-50C127.26,-46.74 142.19,-43.02 155.8,-39.63"/>
<polygon fill="#000000" fill-opacity="0.200000" stroke="#000000" stroke-width="2" stroke-opacity="0.200000" points="156.64,-41.59 161.96,-38.1 155.63,-37.51 156.64,-41.59"/>
</g>
<!-- components/selectAndTabs.tsx -->
<g id="node3" class="node">
<title>components/selectAndTabs.tsx</title>
<g id="a_node3"><a xlink:href="components/selectAndTabs.tsx" xlink:title="selectAndTabs.tsx">
<path fill="#bbfeff" stroke="black" d="M242,-68C242,-68 157,-68 157,-68 154,-68 151,-65 151,-62 151,-62 151,-56 151,-56 151,-53 154,-50 157,-50 157,-50 242,-50 242,-50 245,-50 248,-53 248,-56 248,-56 248,-62 248,-62 248,-65 245,-68 242,-68"/>
<text text-anchor="middle" x="199.5" y="-56.8" font-family="Helvetica,sans-Serif" font-size="9.00">selectAndTabs.tsx</text>
</a>
</g>
</g>
<!-- components/components.stories.tsx&#45;&gt;components/selectAndTabs.tsx -->
<g id="edge2" class="edge">
<title>components/components.stories.tsx&#45;&gt;components/selectAndTabs.tsx</title>
<path fill="none" stroke="#000000" stroke-width="2" stroke-opacity="0.200000" d="M138.25,-59C140.37,-59 142.49,-59 144.59,-59"/>
<polygon fill="#000000" fill-opacity="0.200000" stroke="#000000" stroke-width="2" stroke-opacity="0.200000" points="144.88,-61.1 150.88,-59 144.88,-56.9 144.88,-61.1"/>
</g>
<!-- components/support/utils.ts -->
<g id="node4" class="node">
<title>components/support/utils.ts</title>
<g id="a_node4"><a xlink:href="components/support/utils.ts" xlink:title="utils.ts">
<path fill="#ddfeff" stroke="black" d="M312,-42C312,-42 270,-42 270,-42 267,-42 264,-39 264,-36 264,-36 264,-30 264,-30 264,-27 267,-24 270,-24 270,-24 312,-24 312,-24 315,-24 318,-27 318,-30 318,-30 318,-36 318,-36 318,-39 315,-42 312,-42"/>
<text text-anchor="middle" x="291" y="-30.8" font-family="Helvetica,sans-Serif" font-size="9.00">utils.ts</text>
</a>
</g>
</g>
<!-- components/dataTable.tsx&#45;&gt;components/support/utils.ts -->
<g id="edge3" class="edge">
<title>components/dataTable.tsx&#45;&gt;components/support/utils.ts</title>
<path fill="none" stroke="#000000" stroke-width="2" stroke-opacity="0.200000" d="M237.68,-30.66C244.31,-30.96 251.16,-31.26 257.64,-31.55"/>
<polygon fill="#000000" fill-opacity="0.200000" stroke="#000000" stroke-width="2" stroke-opacity="0.200000" points="257.89,-33.67 263.97,-31.84 258.07,-29.47 257.89,-33.67"/>
</g>
<!-- components/index.tsx -->
<g id="node5" class="node">
<title>components/index.tsx</title>
<g id="a_node5"><a xlink:href="components/index.tsx" xlink:title="index.tsx">
<path fill="#bbfeff" stroke="black" d="M100,-38C100,-38 54,-38 54,-38 51,-38 48,-35 48,-32 48,-32 48,-26 48,-26 48,-23 51,-20 54,-20 54,-20 100,-20 100,-20 103,-20 106,-23 106,-26 106,-26 106,-32 106,-32 106,-35 103,-38 100,-38"/>
<text text-anchor="middle" x="77" y="-26.8" font-family="Helvetica,sans-Serif" font-size="9.00">index.tsx</text>
</a>
</g>
</g>
<!-- components/index.tsx&#45;&gt;components/dataTable.tsx -->
<g id="edge4" class="edge">
<title>components/index.tsx&#45;&gt;components/dataTable.tsx</title>
<path fill="none" stroke="#000000" stroke-width="2" stroke-opacity="0.200000" d="M106.25,-29C120.74,-29 138.72,-29 154.94,-29"/>
<polygon fill="#000000" fill-opacity="0.200000" stroke="#000000" stroke-width="2" stroke-opacity="0.200000" points="155.29,-31.1 161.29,-29 155.29,-26.9 155.29,-31.1"/>
</g>
<!-- components/index.tsx&#45;&gt;components/selectAndTabs.tsx -->
<g id="edge5" class="edge">
<title>components/index.tsx&#45;&gt;components/selectAndTabs.tsx</title>
<path fill="none" stroke="#000000" stroke-width="2" stroke-opacity="0.200000" d="M106.25,-36.03C121.12,-39.74 139.65,-44.35 156.2,-48.47"/>
<polygon fill="#000000" fill-opacity="0.200000" stroke="#000000" stroke-width="2" stroke-opacity="0.200000" points="155.86,-50.55 162.19,-49.96 156.88,-46.47 155.86,-50.55"/>
</g>
</g>
</svg>
