<?xml version="1.0" encoding="UTF-8" standalone="no"?>
<!DOCTYPE svg PUBLIC "-//W3C//DTD SVG 1.1//EN"
 "http://www.w3.org/Graphics/SVG/1.1/DTD/svg11.dtd">
<!-- Generated by graphviz version 2.44.0 (0)
 -->
<!-- Title: dependency&#45;cruiser output Pages: 1 -->
<svg width="402pt" height="850pt"
 viewBox="0.00 0.00 402.00 850.00" xmlns="http://www.w3.org/2000/svg" xmlns:xlink="http://www.w3.org/1999/xlink">
<g id="graph0" class="graph" transform="scale(1 1) rotate(0) translate(4 846)">
<title>dependency&#45;cruiser output</title>
<polygon fill="white" stroke="transparent" points="-4,4 -4,-846 398,-846 398,4 -4,4"/>
<g id="clust1" class="cluster">
<title>cluster_client</title>
<path fill="#ffffff" stroke="black" stroke-width="2" d="M20,-632C20,-632 321,-632 321,-632 327,-632 333,-638 333,-644 333,-644 333,-822 333,-822 333,-828 327,-834 321,-834 321,-834 20,-834 20,-834 14,-834 8,-828 8,-822 8,-822 8,-644 8,-644 8,-638 14,-632 20,-632"/>
<text text-anchor="middle" x="170.5" y="-822.8" font-family="Helvetica,sans-Serif" font-weight="bold" font-size="9.00">client</text>
</g>
<g id="clust2" class="cluster">
<title>cluster_client/example</title>
<path fill="#ffffff" stroke="black" stroke-width="2" d="M127,-756C127,-756 190,-756 190,-756 196,-756 202,-762 202,-768 202,-768 202,-796 202,-796 202,-802 196,-808 190,-808 190,-808 127,-808 127,-808 121,-808 115,-802 115,-796 115,-796 115,-768 115,-768 115,-762 121,-756 127,-756"/>
<text text-anchor="middle" x="158.5" y="-796.8" font-family="Helvetica,sans-Serif" font-weight="bold" font-size="9.00">example</text>
</g>
<g id="clust3" class="cluster">
<title>cluster_client/root</title>
<path fill="#ffffff" stroke="black" stroke-width="2" d="M28,-666C28,-666 181.5,-666 181.5,-666 187.5,-666 193.5,-672 193.5,-678 193.5,-678 193.5,-736 193.5,-736 193.5,-742 187.5,-748 181.5,-748 181.5,-748 28,-748 28,-748 22,-748 16,-742 16,-736 16,-736 16,-678 16,-678 16,-672 22,-666 28,-666"/>
<text text-anchor="middle" x="104.75" y="-736.8" font-family="Helvetica,sans-Serif" font-weight="bold" font-size="9.00">root</text>
</g>
<g id="clust4" class="cluster">
<title>cluster_node_modules</title>
<path fill="#ffffff" stroke="black" stroke-width="2" d="M222,-8C222,-8 374,-8 374,-8 380,-8 386,-14 386,-20 386,-20 386,-612 386,-612 386,-618 380,-624 374,-624 374,-624 222,-624 222,-624 216,-624 210,-618 210,-612 210,-612 210,-20 210,-20 210,-14 216,-8 222,-8"/>
<text text-anchor="middle" x="298" y="-612.8" font-family="Helvetica,sans-Serif" font-weight="bold" font-size="9.00">node_modules</text>
</g>
<g id="clust5" class="cluster">
<title>cluster_node_modules/@material&#45;ui</title>
<path fill="#ffffff" stroke="black" stroke-width="2" d="M267,-512C267,-512 329,-512 329,-512 335,-512 341,-518 341,-524 341,-524 341,-586 341,-586 341,-592 335,-598 329,-598 329,-598 267,-598 267,-598 261,-598 255,-592 255,-586 255,-586 255,-524 255,-524 255,-518 261,-512 267,-512"/>
<text text-anchor="middle" x="298" y="-586.8" font-family="Helvetica,sans-Serif" font-weight="bold" font-size="9.00">@material&#45;ui</text>
</g>
<g id="clust6" class="cluster">
<title>cluster_node_modules/@material&#45;ui/core</title>
<path fill="#ffffff" stroke="black" stroke-width="2" d="M275,-520C275,-520 321,-520 321,-520 327,-520 333,-526 333,-532 333,-532 333,-560 333,-560 333,-566 327,-572 321,-572 321,-572 275,-572 275,-572 269,-572 263,-566 263,-560 263,-560 263,-532 263,-532 263,-526 269,-520 275,-520"/>
<text text-anchor="middle" x="298" y="-560.8" font-family="Helvetica,sans-Serif" font-weight="bold" font-size="9.00">core</text>
</g>
<g id="clust7" class="cluster">
<title>cluster_node_modules/mobx&#45;react&#45;lite</title>
<path fill="#ffffff" stroke="black" stroke-width="2" d="M263,-418C263,-418 334,-418 334,-418 340,-418 346,-424 346,-430 346,-430 346,-492 346,-492 346,-498 340,-504 334,-504 334,-504 263,-504 263,-504 257,-504 251,-498 251,-492 251,-492 251,-430 251,-430 251,-424 257,-418 263,-418"/>
<text text-anchor="middle" x="298.5" y="-492.8" font-family="Helvetica,sans-Serif" font-weight="bold" font-size="9.00">mobx&#45;react&#45;lite</text>
</g>
<g id="clust8" class="cluster">
<title>cluster_node_modules/mobx&#45;react&#45;lite/dist</title>
<path fill="#ffffff" stroke="black" stroke-width="2" d="M275,-426C275,-426 321,-426 321,-426 327,-426 333,-432 333,-438 333,-438 333,-466 333,-466 333,-472 327,-478 321,-478 321,-478 275,-478 275,-478 269,-478 263,-472 263,-466 263,-466 263,-438 263,-438 263,-432 269,-426 275,-426"/>
<text text-anchor="middle" x="298" y="-466.8" font-family="Helvetica,sans-Serif" font-weight="bold" font-size="9.00">dist</text>
</g>
<g id="clust9" class="cluster">
<title>cluster_node_modules/mobx&#45;state&#45;tree</title>
<path fill="#ffffff" stroke="black" stroke-width="2" d="M245,-230C245,-230 351,-230 351,-230 357,-230 363,-236 363,-242 363,-242 363,-304 363,-304 363,-310 357,-316 351,-316 351,-316 245,-316 245,-316 239,-316 233,-310 233,-304 233,-304 233,-242 233,-242 233,-236 239,-230 245,-230"/>
<text text-anchor="middle" x="298" y="-304.8" font-family="Helvetica,sans-Serif" font-weight="bold" font-size="9.00">mobx&#45;state&#45;tree</text>
</g>
<g id="clust10" class="cluster">
<title>cluster_node_modules/mobx&#45;state&#45;tree/dist</title>
<path fill="#ffffff" stroke="black" stroke-width="2" d="M253,-238C253,-238 343,-238 343,-238 349,-238 355,-244 355,-250 355,-250 355,-278 355,-278 355,-284 349,-290 343,-290 343,-290 253,-290 253,-290 247,-290 241,-284 241,-278 241,-278 241,-250 241,-250 241,-244 247,-238 253,-238"/>
<text text-anchor="middle" x="298" y="-278.8" font-family="Helvetica,sans-Serif" font-weight="bold" font-size="9.00">dist</text>
</g>
<g id="clust11" class="cluster">
<title>cluster_node_modules/react&#45;dom</title>
<path fill="#ffffff" stroke="black" stroke-width="2" d="M275,-110C275,-110 321,-110 321,-110 327,-110 333,-116 333,-122 333,-122 333,-150 333,-150 333,-156 327,-162 321,-162 321,-162 275,-162 275,-162 269,-162 263,-156 263,-150 263,-150 263,-122 263,-122 263,-116 269,-110 275,-110"/>
<text text-anchor="middle" x="298" y="-150.8" font-family="Helvetica,sans-Serif" font-weight="bold" font-size="9.00">react&#45;dom</text>
</g>
<g id="clust12" class="cluster">
<title>cluster_node_modules/react</title>
<path fill="#ffffff" stroke="black" stroke-width="2" d="M275,-170C275,-170 321,-170 321,-170 327,-170 333,-176 333,-182 333,-182 333,-210 333,-210 333,-216 327,-222 321,-222 321,-222 275,-222 275,-222 269,-222 263,-216 263,-210 263,-210 263,-182 263,-182 263,-176 269,-170 275,-170"/>
<text text-anchor="middle" x="298" y="-210.8" font-family="Helvetica,sans-Serif" font-weight="bold" font-size="9.00">react</text>
</g>
<g id="clust13" class="cluster">
<title>cluster_node_modules/styled&#45;components</title>
<path fill="#ffffff" stroke="black" stroke-width="2" d="M230,-324C230,-324 366,-324 366,-324 372,-324 378,-330 378,-336 378,-336 378,-398 378,-398 378,-404 372,-410 366,-410 366,-410 230,-410 230,-410 224,-410 218,-404 218,-398 218,-398 218,-336 218,-336 218,-330 224,-324 230,-324"/>
<text text-anchor="middle" x="298" y="-398.8" font-family="Helvetica,sans-Serif" font-weight="bold" font-size="9.00">styled&#45;components</text>
</g>
<g id="clust14" class="cluster">
<title>cluster_node_modules/styled&#45;components/dist</title>
<path fill="#ffffff" stroke="black" stroke-width="2" d="M238,-332C238,-332 358,-332 358,-332 364,-332 370,-338 370,-344 370,-344 370,-372 370,-372 370,-378 364,-384 358,-384 358,-384 238,-384 238,-384 232,-384 226,-378 226,-372 226,-372 226,-344 226,-344 226,-338 232,-332 238,-332"/>
<text text-anchor="middle" x="298" y="-372.8" font-family="Helvetica,sans-Serif" font-weight="bold" font-size="9.00">dist</text>
</g>
<g id="clust15" class="cluster">
<title>cluster_node_modules/tiny&#45;mst&#45;router</title>
<path fill="#ffffff" stroke="black" stroke-width="2" d="M249.5,-16C249.5,-16 346.5,-16 346.5,-16 352.5,-16 358.5,-22 358.5,-28 358.5,-28 358.5,-90 358.5,-90 358.5,-96 352.5,-102 346.5,-102 346.5,-102 249.5,-102 249.5,-102 243.5,-102 237.5,-96 237.5,-90 237.5,-90 237.5,-28 237.5,-28 237.5,-22 243.5,-16 249.5,-16"/>
<text text-anchor="middle" x="298" y="-90.8" font-family="Helvetica,sans-Serif" font-weight="bold" font-size="9.00">tiny&#45;mst&#45;router</text>
</g>
<g id="clust16" class="cluster">
<title>cluster_node_modules/tiny&#45;mst&#45;router/build</title>
<path fill="#ffffff" stroke="black" stroke-width="2" d="M257.5,-24C257.5,-24 338.5,-24 338.5,-24 344.5,-24 350.5,-30 350.5,-36 350.5,-36 350.5,-64 350.5,-64 350.5,-70 344.5,-76 338.5,-76 338.5,-76 257.5,-76 257.5,-76 251.5,-76 245.5,-70 245.5,-64 245.5,-64 245.5,-36 245.5,-36 245.5,-30 251.5,-24 257.5,-24"/>
<text text-anchor="middle" x="298" y="-64.8" font-family="Helvetica,sans-Serif" font-weight="bold" font-size="9.00">build</text>
</g>
<!-- client/example/example.tsx -->
<g id="node1" class="node">
<title>client/example/example.tsx</title>
<g id="a_node1"><a xlink:href="client/example/example.tsx" xlink:title="example.tsx">
<path fill="#bbfeff" stroke="black" d="M188,-782C188,-782 129,-782 129,-782 126,-782 123,-779 123,-776 123,-776 123,-770 123,-770 123,-767 126,-764 129,-764 129,-764 188,-764 188,-764 191,-764 194,-767 194,-770 194,-770 194,-776 194,-776 194,-779 191,-782 188,-782"/>
<text text-anchor="middle" x="158.5" y="-770.8" font-family="Helvetica,sans-Serif" font-size="9.00">example.tsx</text>
</a>
</g>
</g>
<!-- client/store.ts -->
<g id="node2" class="node">
<title>client/store.ts</title>
<g id="a_node2"><a xlink:href="client/store.ts" xlink:title="store.ts">
<path fill="#ddfeff" stroke="black" d="M319,-782C319,-782 277,-782 277,-782 274,-782 271,-779 271,-776 271,-776 271,-770 271,-770 271,-767 274,-764 277,-764 277,-764 319,-764 319,-764 322,-764 325,-767 325,-770 325,-770 325,-776 325,-776 325,-779 322,-782 319,-782"/>
<text text-anchor="middle" x="298" y="-770.8" font-family="Helvetica,sans-Serif" font-size="9.00">store.ts</text>
</a>
</g>
</g>
<!-- client/example/example.tsx&#45;&gt;client/store.ts -->
<g id="edge1" class="edge">
<title>client/example/example.tsx&#45;&gt;client/store.ts</title>
<path fill="none" stroke="#000000" stroke-width="2" stroke-opacity="0.200000" d="M194.2,-773C215.92,-773 243.71,-773 264.92,-773"/>
<polygon fill="#000000" fill-opacity="0.200000" stroke="#000000" stroke-width="2" stroke-opacity="0.200000" points="265,-775.1 271,-773 265,-770.9 265,-775.1"/>
</g>
<!-- node_modules/@material&#45;ui/core/index.js -->
<g id="node3" class="node">
<title>node_modules/@material&#45;ui/core/index.js</title>
<g id="a_node3"><a xlink:href="node_modules/@material-ui/core/index.js" xlink:title="index.js">
<path fill="#c40b0a" fill-opacity="0.101961" stroke="black" d="M319,-546C319,-546 277,-546 277,-546 274,-546 271,-543 271,-540 271,-540 271,-534 271,-534 271,-531 274,-528 277,-528 277,-528 319,-528 319,-528 322,-528 325,-531 325,-534 325,-534 325,-540 325,-540 325,-543 322,-546 319,-546"/>
<text text-anchor="middle" x="298" y="-534.8" font-family="Helvetica,sans-Serif" font-size="9.00" fill="#c40b0a">index.js</text>
</a>
</g>
</g>
<!-- client/example/example.tsx&#45;&gt;node_modules/@material&#45;ui/core/index.js -->
<g id="edge2" class="edge">
<title>client/example/example.tsx&#45;&gt;node_modules/@material&#45;ui/core/index.js</title>
<path fill="none" stroke="#000000" stroke-dasharray="5,2" stroke-opacity="0.200000" d="M186.98,-763.99C192.85,-760.8 198.36,-756.56 202,-751 216.87,-728.26 199.13,-653.9 210,-629 224.83,-595.01 257.9,-565.86 278.72,-549.94"/>
<polygon fill="#000000" fill-opacity="0.200000" stroke="#000000" stroke-opacity="0.200000" points="280.2,-551.46 283.74,-546.18 277.68,-548.1 280.2,-551.46"/>
</g>
<!-- node_modules/mobx&#45;react&#45;lite/dist/index.js -->
<g id="node4" class="node">
<title>node_modules/mobx&#45;react&#45;lite/dist/index.js</title>
<g id="a_node4"><a xlink:href="node_modules/mobx-react-lite/dist/index.js" xlink:title="index.js">
<path fill="#c40b0a" fill-opacity="0.101961" stroke="black" d="M319,-452C319,-452 277,-452 277,-452 274,-452 271,-449 271,-446 271,-446 271,-440 271,-440 271,-437 274,-434 277,-434 277,-434 319,-434 319,-434 322,-434 325,-437 325,-440 325,-440 325,-446 325,-446 325,-449 322,-452 319,-452"/>
<text text-anchor="middle" x="298" y="-440.8" font-family="Helvetica,sans-Serif" font-size="9.00" fill="#c40b0a">index.js</text>
</a>
</g>
</g>
<!-- client/example/example.tsx&#45;&gt;node_modules/mobx&#45;react&#45;lite/dist/index.js -->
<g id="edge3" class="edge">
<title>client/example/example.tsx&#45;&gt;node_modules/mobx&#45;react&#45;lite/dist/index.js</title>
<path fill="none" stroke="#000000" stroke-dasharray="5,2" stroke-opacity="0.200000" d="M187.55,-763.83C193.24,-760.66 198.54,-756.48 202,-751 215.9,-729.01 198.68,-540.42 210,-517 223.46,-489.14 252.84,-467.75 273.73,-455.29"/>
<polygon fill="#000000" fill-opacity="0.200000" stroke="#000000" stroke-opacity="0.200000" points="274.97,-457 279.11,-452.17 272.86,-453.36 274.97,-457"/>
</g>
<!-- node_modules/mobx&#45;state&#45;tree/dist/mobx&#45;state&#45;tree.js -->
<g id="node5" class="node">
<title>node_modules/mobx&#45;state&#45;tree/dist/mobx&#45;state&#45;tree.js</title>
<g id="a_node5"><a xlink:href="node_modules/mobx-state-tree/dist/mobx-state-tree.js" xlink:title="mobx&#45;state&#45;tree.js">
<path fill="#c40b0a" fill-opacity="0.101961" stroke="black" d="M341,-264C341,-264 255,-264 255,-264 252,-264 249,-261 249,-258 249,-258 249,-252 249,-252 249,-249 252,-246 255,-246 255,-246 341,-246 341,-246 344,-246 347,-249 347,-252 347,-252 347,-258 347,-258 347,-261 344,-264 341,-264"/>
<text text-anchor="middle" x="298" y="-252.8" font-family="Helvetica,sans-Serif" font-size="9.00" fill="#c40b0a">mobx&#45;state&#45;tree.js</text>
</a>
</g>
</g>
<!-- client/example/example.tsx&#45;&gt;node_modules/mobx&#45;state&#45;tree/dist/mobx&#45;state&#45;tree.js -->
<g id="edge4" class="edge">
<title>client/example/example.tsx&#45;&gt;node_modules/mobx&#45;state&#45;tree/dist/mobx&#45;state&#45;tree.js</title>
<path fill="none" stroke="#000000" stroke-dasharray="5,2" stroke-opacity="0.200000" d="M187.61,-763.87C193.3,-760.7 198.58,-756.5 202,-751 214.38,-731.08 199.96,-350.19 210,-329 223.25,-301.04 252.67,-279.67 273.63,-267.24"/>
<polygon fill="#000000" fill-opacity="0.200000" stroke="#000000" stroke-opacity="0.200000" points="274.88,-268.95 279.03,-264.13 272.78,-265.31 274.88,-268.95"/>
</g>
<!-- node_modules/react/index.js -->
<g id="node6" class="node">
<title>node_modules/react/index.js</title>
<g id="a_node6"><a xlink:href="node_modules/react/index.js" xlink:title="index.js">
<path fill="#c40b0a" fill-opacity="0.101961" stroke="black" d="M319,-196C319,-196 277,-196 277,-196 274,-196 271,-193 271,-190 271,-190 271,-184 271,-184 271,-181 274,-178 277,-178 277,-178 319,-178 319,-178 322,-178 325,-181 325,-184 325,-184 325,-190 325,-190 325,-193 322,-196 319,-196"/>
<text text-anchor="middle" x="298" y="-184.8" font-family="Helvetica,sans-Serif" font-size="9.00" fill="#c40b0a">index.js</text>
</a>
</g>
</g>
<!-- client/example/example.tsx&#45;&gt;node_modules/react/index.js -->
<g id="edge5" class="edge">
<title>client/example/example.tsx&#45;&gt;node_modules/react/index.js</title>
<path fill="none" stroke="#000000" stroke-dasharray="5,2" stroke-opacity="0.200000" d="M187.62,-763.87C193.31,-760.7 198.59,-756.51 202,-751 217.09,-726.62 195.23,-259.57 210,-235 221.92,-215.17 245.23,-202.94 264.72,-195.79"/>
<polygon fill="#000000" fill-opacity="0.200000" stroke="#000000" stroke-opacity="0.200000" points="265.66,-197.69 270.63,-193.74 264.28,-193.73 265.66,-197.69"/>
</g>
<!-- node_modules/styled&#45;components/dist/styled&#45;components.cjs.js -->
<g id="node7" class="node">
<title>node_modules/styled&#45;components/dist/styled&#45;components.cjs.js</title>
<g id="a_node7"><a xlink:href="node_modules/styled-components/dist/styled-components.cjs.js" xlink:title="styled&#45;components.cjs.js">
<path fill="#c40b0a" fill-opacity="0.101961" stroke="black" d="M356,-358C356,-358 240,-358 240,-358 237,-358 234,-355 234,-352 234,-352 234,-346 234,-346 234,-343 237,-340 240,-340 240,-340 356,-340 356,-340 359,-340 362,-343 362,-346 362,-346 362,-352 362,-352 362,-355 359,-358 356,-358"/>
<text text-anchor="middle" x="298" y="-346.8" font-family="Helvetica,sans-Serif" font-size="9.00" fill="#c40b0a">styled&#45;components.cjs.js</text>
</a>
</g>
</g>
<!-- client/example/example.tsx&#45;&gt;node_modules/styled&#45;components/dist/styled&#45;components.cjs.js -->
<g id="edge6" class="edge">
<title>client/example/example.tsx&#45;&gt;node_modules/styled&#45;components/dist/styled&#45;components.cjs.js</title>
<path fill="none" stroke="#000000" stroke-dasharray="5,2" stroke-opacity="0.200000" d="M187.58,-763.85C193.28,-760.68 198.56,-756.49 202,-751 221.33,-720.09 194.3,-455.9 210,-423 223.33,-395.07 252.73,-373.69 273.67,-361.26"/>
<polygon fill="#000000" fill-opacity="0.200000" stroke="#000000" stroke-opacity="0.200000" points="274.91,-362.96 279.06,-358.14 272.81,-359.33 274.91,-362.96"/>
</g>
<!-- client/index.tsx -->
<g id="node8" class="node">
<title>client/index.tsx</title>
<g id="a_node8"><a xlink:href="client/index.tsx" xlink:title="index.tsx">
<path fill="#bbfeff" stroke="black" d="M88.5,-658C88.5,-658 42.5,-658 42.5,-658 39.5,-658 36.5,-655 36.5,-652 36.5,-652 36.5,-646 36.5,-646 36.5,-643 39.5,-640 42.5,-640 42.5,-640 88.5,-640 88.5,-640 91.5,-640 94.5,-643 94.5,-646 94.5,-646 94.5,-652 94.5,-652 94.5,-655 91.5,-658 88.5,-658"/>
<text text-anchor="middle" x="65.5" y="-646.8" font-family="Helvetica,sans-Serif" font-size="9.00">index.tsx</text>
</a>
</g>
</g>
<!-- client/index.tsx&#45;&gt;node_modules/react/index.js -->
<g id="edge8" class="edge">
<title>client/index.tsx&#45;&gt;node_modules/react/index.js</title>
<path fill="none" stroke="#000000" stroke-dasharray="5,2" stroke-opacity="0.200000" d="M66.11,-639.89C64.83,-601.45 63.44,-449.55 115,-341 142.14,-283.86 160.5,-274.39 210,-235 228.56,-220.24 252.27,-207.49 270.25,-198.85"/>
<polygon fill="#000000" fill-opacity="0.200000" stroke="#000000" stroke-opacity="0.200000" points="271.58,-200.54 276.11,-196.08 269.79,-196.74 271.58,-200.54"/>
</g>
<!-- client/root/root.tsx -->
<g id="node9" class="node">
<title>client/root/root.tsx</title>
<g id="a_node9"><a xlink:href="client/root/root.tsx" xlink:title="root.tsx">
<path fill="#bbfeff" stroke="black" d="M179.5,-707C179.5,-707 137.5,-707 137.5,-707 134.5,-707 131.5,-704 131.5,-701 131.5,-701 131.5,-695 131.5,-695 131.5,-692 134.5,-689 137.5,-689 137.5,-689 179.5,-689 179.5,-689 182.5,-689 185.5,-692 185.5,-695 185.5,-695 185.5,-701 185.5,-701 185.5,-704 182.5,-707 179.5,-707"/>
<text text-anchor="middle" x="158.5" y="-695.8" font-family="Helvetica,sans-Serif" font-size="9.00">root.tsx</text>
</a>
</g>
</g>
<!-- client/index.tsx&#45;&gt;client/root/root.tsx -->
<g id="edge7" class="edge">
<title>client/index.tsx&#45;&gt;client/root/root.tsx</title>
<path fill="none" stroke="#000000" stroke-width="2" stroke-opacity="0.200000" d="M94.8,-657.67C98.97,-659.26 103.15,-661.05 107,-663 119.2,-669.19 131.85,-677.96 141.44,-685.17"/>
<polygon fill="#000000" fill-opacity="0.200000" stroke="#000000" stroke-width="2" stroke-opacity="0.200000" points="140.39,-687.01 146.43,-689 142.94,-683.68 140.39,-687.01"/>
</g>
<!-- node_modules/react&#45;dom/index.js -->
<g id="node10" class="node">
<title>node_modules/react&#45;dom/index.js</title>
<g id="a_node10"><a xlink:href="node_modules/react-dom/index.js" xlink:title="index.js">
<path fill="#c40b0a" fill-opacity="0.101961" stroke="black" d="M319,-136C319,-136 277,-136 277,-136 274,-136 271,-133 271,-130 271,-130 271,-124 271,-124 271,-121 274,-118 277,-118 277,-118 319,-118 319,-118 322,-118 325,-121 325,-124 325,-124 325,-130 325,-130 325,-133 322,-136 319,-136"/>
<text text-anchor="middle" x="298" y="-124.8" font-family="Helvetica,sans-Serif" font-size="9.00" fill="#c40b0a">index.js</text>
</a>
</g>
</g>
<!-- client/index.tsx&#45;&gt;node_modules/react&#45;dom/index.js -->
<g id="edge9" class="edge">
<title>client/index.tsx&#45;&gt;node_modules/react&#45;dom/index.js</title>
<path fill="none" stroke="#000000" stroke-dasharray="5,2" stroke-opacity="0.200000" d="M66.62,-639.71C67.44,-585.49 73.62,-309.73 115,-238 147.76,-181.2 222.35,-149.86 265.17,-135.94"/>
<polygon fill="#000000" fill-opacity="0.200000" stroke="#000000" stroke-opacity="0.200000" points="265.92,-137.9 271,-134.09 264.64,-133.9 265.92,-137.9"/>
</g>
<!-- client/root/root.models.ts -->
<g id="node11" class="node">
<title>client/root/root.models.ts</title>
<g id="a_node11"><a xlink:href="client/root/root.models.ts" xlink:title="root.models.ts">
<path fill="#ddfeff" stroke="black" d="M100,-692C100,-692 31,-692 31,-692 28,-692 25,-689 25,-686 25,-686 25,-680 25,-680 25,-677 28,-674 31,-674 31,-674 100,-674 100,-674 103,-674 106,-677 106,-680 106,-680 106,-686 106,-686 106,-689 103,-692 100,-692"/>
<text text-anchor="middle" x="65.5" y="-680.8" font-family="Helvetica,sans-Serif" font-size="9.00">root.models.ts</text>
</a>
</g>
</g>
<!-- client/root/root.models.ts&#45;&gt;client/example/example.tsx -->
<g id="edge10" class="edge">
<title>client/root/root.models.ts&#45;&gt;client/example/example.tsx</title>
<path fill="none" stroke="#000000" stroke-width="2" stroke-opacity="0.200000" d="M100.3,-692.05C102.82,-693.71 105.11,-695.67 107,-698 122.03,-716.48 101.13,-731.63 115,-751 117.66,-754.72 121.14,-757.85 124.96,-760.48"/>
<polygon fill="#000000" fill-opacity="0.200000" stroke="#000000" stroke-width="2" stroke-opacity="0.200000" points="124.13,-762.43 130.34,-763.77 126.32,-758.85 124.13,-762.43"/>
</g>
<!-- client/root/root.models.ts&#45;&gt;node_modules/mobx&#45;state&#45;tree/dist/mobx&#45;state&#45;tree.js -->
<g id="edge11" class="edge">
<title>client/root/root.models.ts&#45;&gt;node_modules/mobx&#45;state&#45;tree/dist/mobx&#45;state&#45;tree.js</title>
<path fill="none" stroke="#000000" stroke-dasharray="5,2" stroke-opacity="0.200000" d="M102.2,-673.94C103.93,-672.78 105.55,-671.47 107,-670 217.98,-557.09 123.28,-461.46 210,-329 227.35,-302.5 256.92,-280.26 276.7,-267.28"/>
<polygon fill="#000000" fill-opacity="0.200000" stroke="#000000" stroke-opacity="0.200000" points="277.85,-269.04 281.76,-264.03 275.57,-265.51 277.85,-269.04"/>
</g>
<!-- node_modules/tiny&#45;mst&#45;router/build/TinyMstRouter.js -->
<g id="node12" class="node">
<title>node_modules/tiny&#45;mst&#45;router/build/TinyMstRouter.js</title>
<g id="a_node12"><a xlink:href="node_modules/tiny-mst-router/build/TinyMstRouter.js" xlink:title="TinyMstRouter.js">
<path fill="#c40b0a" fill-opacity="0.101961" stroke="black" d="M336.5,-50C336.5,-50 259.5,-50 259.5,-50 256.5,-50 253.5,-47 253.5,-44 253.5,-44 253.5,-38 253.5,-38 253.5,-35 256.5,-32 259.5,-32 259.5,-32 336.5,-32 336.5,-32 339.5,-32 342.5,-35 342.5,-38 342.5,-38 342.5,-44 342.5,-44 342.5,-47 339.5,-50 336.5,-50"/>
<text text-anchor="middle" x="298" y="-38.8" font-family="Helvetica,sans-Serif" font-size="9.00" fill="#c40b0a">TinyMstRouter.js</text>
</a>
</g>
</g>
<!-- client/root/root.models.ts&#45;&gt;node_modules/tiny&#45;mst&#45;router/build/TinyMstRouter.js -->
<g id="edge12" class="edge">
<title>client/root/root.models.ts&#45;&gt;node_modules/tiny&#45;mst&#45;router/build/TinyMstRouter.js</title>
<path fill="none" stroke="#000000" stroke-dasharray="5,2" stroke-opacity="0.200000" d="M103.38,-673.82C104.72,-672.69 105.94,-671.42 107,-670 117.95,-655.36 111.28,-358.9 115,-341 137.85,-231.11 141.74,-196.1 210,-107 227.71,-83.89 255.47,-64.76 274.86,-53.14"/>
<polygon fill="#000000" fill-opacity="0.200000" stroke="#000000" stroke-opacity="0.200000" points="275.98,-54.92 280.09,-50.07 273.86,-51.3 275.98,-54.92"/>
</g>
<!-- client/root/root.stories.tsx -->
<g id="node13" class="node">
<title>client/root/root.stories.tsx</title>
<g id="a_node13"><a xlink:href="client/root/root.stories.tsx" xlink:title="root.stories.tsx">
<path fill="#bbfeff" stroke="black" d="M101,-722C101,-722 30,-722 30,-722 27,-722 24,-719 24,-716 24,-716 24,-710 24,-710 24,-707 27,-704 30,-704 30,-704 101,-704 101,-704 104,-704 107,-707 107,-710 107,-710 107,-716 107,-716 107,-719 104,-722 101,-722"/>
<text text-anchor="middle" x="65.5" y="-710.8" font-family="Helvetica,sans-Serif" font-size="9.00">root.stories.tsx</text>
</a>
</g>
</g>
<!-- client/root/root.stories.tsx&#45;&gt;node_modules/react/index.js -->
<g id="edge14" class="edge">
<title>client/root/root.stories.tsx&#45;&gt;node_modules/react/index.js</title>
<path fill="none" stroke="#000000" stroke-dasharray="5,2" stroke-opacity="0.200000" d="M99.67,-703.98C102.38,-702.31 104.89,-700.34 107,-698 121.21,-682.24 198.44,-348.92 202,-328 205.48,-307.55 198.7,-252.39 210,-235 222.52,-215.73 245.57,-203.52 264.8,-196.23"/>
<polygon fill="#000000" fill-opacity="0.200000" stroke="#000000" stroke-opacity="0.200000" points="265.7,-198.14 270.63,-194.13 264.27,-194.19 265.7,-198.14"/>
</g>
<!-- client/root/root.stories.tsx&#45;&gt;client/root/root.tsx -->
<g id="edge13" class="edge">
<title>client/root/root.stories.tsx&#45;&gt;client/root/root.tsx</title>
<path fill="none" stroke="#000000" stroke-width="2" stroke-opacity="0.200000" d="M107.21,-706.29C113.26,-705.29 119.42,-704.28 125.26,-703.31"/>
<polygon fill="#000000" fill-opacity="0.200000" stroke="#000000" stroke-width="2" stroke-opacity="0.200000" points="125.87,-705.34 131.45,-702.29 125.19,-701.2 125.87,-705.34"/>
</g>
</g>
</svg>
