<?xml version="1.0" encoding="UTF-8" standalone="no"?>
<!DOCTYPE svg PUBLIC "-//W3C//DTD SVG 1.1//EN"
 "http://www.w3.org/Graphics/SVG/1.1/DTD/svg11.dtd">
<!-- Generated by graphviz version 2.44.0 (0)
 -->
<!-- Title: dependency&#45;cruiser output Pages: 1 -->
<svg width="288pt" height="226pt"
 viewBox="0.00 0.00 288.00 226.00" xmlns="http://www.w3.org/2000/svg" xmlns:xlink="http://www.w3.org/1999/xlink">
<g id="graph0" class="graph" transform="scale(1 1) rotate(0) translate(4 222)">
<title>dependency&#45;cruiser output</title>
<polygon fill="white" stroke="transparent" points="-4,4 -4,-222 284,-222 284,4 -4,4"/>
<g id="clust1" class="cluster">
<title>cluster_client</title>
<path fill="#ffffff" stroke="black" stroke-width="2" d="M20,-8C20,-8 260,-8 260,-8 266,-8 272,-14 272,-20 272,-20 272,-198 272,-198 272,-204 266,-210 260,-210 260,-210 20,-210 20,-210 14,-210 8,-204 8,-198 8,-198 8,-20 8,-20 8,-14 14,-8 20,-8"/>
<text text-anchor="middle" x="140" y="-198.8" font-family="Helvetica,sans-Serif" font-weight="bold" font-size="9.00">client</text>
</g>
<g id="clust2" class="cluster">
<title>cluster_client/example</title>
<path fill="#ffffff" stroke="black" stroke-width="2" d="M127,-132C127,-132 190,-132 190,-132 196,-132 202,-138 202,-144 202,-144 202,-172 202,-172 202,-178 196,-184 190,-184 190,-184 127,-184 127,-184 121,-184 115,-178 115,-172 115,-172 115,-144 115,-144 115,-138 121,-132 127,-132"/>
<text text-anchor="middle" x="158.5" y="-172.8" font-family="Helvetica,sans-Serif" font-weight="bold" font-size="9.00">example</text>
</g>
<g id="clust3" class="cluster">
<title>cluster_client/root</title>
<path fill="#ffffff" stroke="black" stroke-width="2" d="M28,-42C28,-42 181.5,-42 181.5,-42 187.5,-42 193.5,-48 193.5,-54 193.5,-54 193.5,-112 193.5,-112 193.5,-118 187.5,-124 181.5,-124 181.5,-124 28,-124 28,-124 22,-124 16,-118 16,-112 16,-112 16,-54 16,-54 16,-48 22,-42 28,-42"/>
<text text-anchor="middle" x="104.75" y="-112.8" font-family="Helvetica,sans-Serif" font-weight="bold" font-size="9.00">root</text>
</g>
<!-- client/example/example.tsx -->
<g id="node1" class="node">
<title>client/example/example.tsx</title>
<g id="a_node1"><a xlink:href="client/example/example.tsx" xlink:title="example.tsx">
<path fill="#bbfeff" stroke="black" d="M188,-158C188,-158 129,-158 129,-158 126,-158 123,-155 123,-152 123,-152 123,-146 123,-146 123,-143 126,-140 129,-140 129,-140 188,-140 188,-140 191,-140 194,-143 194,-146 194,-146 194,-152 194,-152 194,-155 191,-158 188,-158"/>
<text text-anchor="middle" x="158.5" y="-146.8" font-family="Helvetica,sans-Serif" font-size="9.00">example.tsx</text>
</a>
</g>
</g>
<!-- client/store.ts -->
<g id="node2" class="node">
<title>client/store.ts</title>
<g id="a_node2"><a xlink:href="client/store.ts" xlink:title="store.ts">
<path fill="#ddfeff" stroke="black" d="M258,-98C258,-98 216,-98 216,-98 213,-98 210,-95 210,-92 210,-92 210,-86 210,-86 210,-83 213,-80 216,-80 216,-80 258,-80 258,-80 261,-80 264,-83 264,-86 264,-86 264,-92 264,-92 264,-95 261,-98 258,-98"/>
<text text-anchor="middle" x="237" y="-86.8" font-family="Helvetica,sans-Serif" font-size="9.00">store.ts</text>
</a>
</g>
</g>
<!-- client/example/example.tsx&#45;&gt;client/store.ts -->
<g id="edge1" class="edge">
<title>client/example/example.tsx&#45;&gt;client/store.ts</title>
<path fill="none" stroke="#000000" stroke-width="2" stroke-opacity="0.200000" d="M194.28,-140.48C197,-139.19 199.61,-137.71 202,-136 211.25,-129.39 218.95,-119.47 224.67,-110.45"/>
<polygon fill="#000000" fill-opacity="0.200000" stroke="#000000" stroke-width="2" stroke-opacity="0.200000" points="230.43,-104.61 231.59,-98.35 226.79,-102.52 230.43,-104.61"/>
<polyline fill="none" stroke="#000000" stroke-width="2" stroke-opacity="0.200000" points="228.61,-103.56 227.12,-106.17 "/>
<ellipse fill="none" stroke="#000000" stroke-width="2" stroke-opacity="0.200000" cx="225.93" cy="-108.25" rx="2.4" ry="2.4"/>
</g>
<!-- client/root/root.models.ts -->
<g id="node5" class="node">
<title>client/root/root.models.ts</title>
<g id="a_node5"><a xlink:href="client/root/root.models.ts" xlink:title="root.models.ts">
<path fill="#ddfeff" stroke="black" d="M100,-98C100,-98 31,-98 31,-98 28,-98 25,-95 25,-92 25,-92 25,-86 25,-86 25,-83 28,-80 31,-80 31,-80 100,-80 100,-80 103,-80 106,-83 106,-86 106,-86 106,-92 106,-92 106,-95 103,-98 100,-98"/>
<text text-anchor="middle" x="65.5" y="-86.8" font-family="Helvetica,sans-Serif" font-size="9.00">root.models.ts</text>
</a>
</g>
</g>
<!-- client/store.ts&#45;&gt;client/root/root.models.ts -->
<g id="edge7" class="edge">
<title>client/store.ts&#45;&gt;client/root/root.models.ts</title>
<path fill="none" stroke="#000000" stroke-width="2" stroke-opacity="0.200000" d="M209.95,-89C186.18,-89 150.3,-89 120.38,-89"/>
<polygon fill="#000000" fill-opacity="0.200000" stroke="#000000" stroke-width="2" stroke-opacity="0.200000" points="112.24,-86.9 106.24,-89 112.24,-91.1 112.24,-86.9"/>
<polyline fill="none" stroke="#000000" stroke-width="2" stroke-opacity="0.200000" points="112.24,-89 115.24,-89 "/>
<ellipse fill="none" stroke="#000000" stroke-width="2" stroke-opacity="0.200000" cx="117.64" cy="-89" rx="2.4" ry="2.4"/>
</g>
<!-- client/index.tsx -->
<g id="node3" class="node">
<title>client/index.tsx</title>
<g id="a_node3"><a xlink:href="client/index.tsx" xlink:title="index.tsx">
<path fill="#bbfeff" stroke="black" d="M88.5,-34C88.5,-34 42.5,-34 42.5,-34 39.5,-34 36.5,-31 36.5,-28 36.5,-28 36.5,-22 36.5,-22 36.5,-19 39.5,-16 42.5,-16 42.5,-16 88.5,-16 88.5,-16 91.5,-16 94.5,-19 94.5,-22 94.5,-22 94.5,-28 94.5,-28 94.5,-31 91.5,-34 88.5,-34"/>
<text text-anchor="middle" x="65.5" y="-22.8" font-family="Helvetica,sans-Serif" font-size="9.00">index.tsx</text>
</a>
</g>
</g>
<!-- client/root/root.tsx -->
<g id="node4" class="node">
<title>client/root/root.tsx</title>
<g id="a_node4"><a xlink:href="client/root/root.tsx" xlink:title="root.tsx">
<path fill="#bbfeff" stroke="black" d="M179.5,-72C179.5,-72 137.5,-72 137.5,-72 134.5,-72 131.5,-69 131.5,-66 131.5,-66 131.5,-60 131.5,-60 131.5,-57 134.5,-54 137.5,-54 137.5,-54 179.5,-54 179.5,-54 182.5,-54 185.5,-57 185.5,-60 185.5,-60 185.5,-66 185.5,-66 185.5,-69 182.5,-72 179.5,-72"/>
<text text-anchor="middle" x="158.5" y="-60.8" font-family="Helvetica,sans-Serif" font-size="9.00">root.tsx</text>
</a>
</g>
</g>
<!-- client/index.tsx&#45;&gt;client/root/root.tsx -->
<g id="edge2" class="edge">
<title>client/index.tsx&#45;&gt;client/root/root.tsx</title>
<path fill="none" stroke="#000000" stroke-width="2" stroke-opacity="0.200000" d="M94.1,-34.08C98.45,-35.64 102.87,-37.31 107,-39 115.91,-42.64 125.49,-47.06 133.88,-51.11"/>
<polygon fill="#000000" fill-opacity="0.200000" stroke="#000000" stroke-width="2" stroke-opacity="0.200000" points="133.17,-53.1 139.49,-53.84 135.01,-49.33 133.17,-53.1"/>
</g>
<!-- client/root/root.tsx&#45;&gt;client/example/example.tsx -->
<g id="edge5" class="edge">
<title>client/root/root.tsx&#45;&gt;client/example/example.tsx</title>
<path fill="none" stroke="#000000" stroke-width="2" stroke-opacity="0.200000" d="M158.5,-72.07C158.5,-92.67 158.5,-113.28 158.5,-133.88"/>
<polygon fill="#000000" fill-opacity="0.200000" stroke="#000000" stroke-width="2" stroke-opacity="0.200000" points="156.4,-133.98 158.5,-139.98 160.6,-133.98 156.4,-133.98"/>
</g>
<!-- client/root/root.tsx&#45;&gt;client/store.ts -->
<g id="edge6" class="edge">
<title>client/root/root.tsx&#45;&gt;client/store.ts</title>
<path fill="none" stroke="#000000" stroke-width="2" stroke-opacity="0.200000" d="M185.66,-70.7C191.09,-72.38 196.75,-74.19 202,-76 203.68,-76.58 205.4,-77.19 207.14,-77.81"/>
<polygon fill="#000000" fill-opacity="0.200000" stroke="#000000" stroke-width="2" stroke-opacity="0.200000" points="206.68,-79.88 213.03,-79.97 208.13,-75.94 206.68,-79.88"/>
</g>
<!-- client/root/root.models.ts&#45;&gt;client/example/example.tsx -->
<g id="edge3" class="edge">
<title>client/root/root.models.ts&#45;&gt;client/example/example.tsx</title>
<path fill="none" stroke="#000000" stroke-width="2" stroke-opacity="0.200000" d="M73.74,-98.29C80.95,-107.06 92.88,-120.3 110.71,-132.45"/>
<polygon fill="#000000" fill-opacity="0.200000" stroke="#000000" stroke-width="2" stroke-opacity="0.200000" points="116.38,-138.44 122.58,-139.83 118.6,-134.88 116.38,-138.44"/>
<polyline fill="none" stroke="#000000" stroke-width="2" stroke-opacity="0.200000" points="117.49,-136.66 114.94,-135.08 "/>
<ellipse fill="none" stroke="#000000" stroke-width="2" stroke-opacity="0.200000" cx="112.9" cy="-133.81" rx="2.4" ry="2.4"/>
</g>
<!-- client/root/root.stories.tsx -->
<g id="node6" class="node">
<title>client/root/root.stories.tsx</title>
<g id="a_node6"><a xlink:href="client/root/root.stories.tsx" xlink:title="root.stories.tsx">
<path fill="#bbfeff" stroke="black" d="M101,-68C101,-68 30,-68 30,-68 27,-68 24,-65 24,-62 24,-62 24,-56 24,-56 24,-53 27,-50 30,-50 30,-50 101,-50 101,-50 104,-50 107,-53 107,-56 107,-56 107,-62 107,-62 107,-65 104,-68 101,-68"/>
<text text-anchor="middle" x="65.5" y="-56.8" font-family="Helvetica,sans-Serif" font-size="9.00">root.stories.tsx</text>
</a>
</g>
</g>
<!-- client/root/root.stories.tsx&#45;&gt;client/root/root.tsx -->
<g id="edge4" class="edge">
<title>client/root/root.stories.tsx&#45;&gt;client/root/root.tsx</title>
<path fill="none" stroke="#000000" stroke-width="2" stroke-opacity="0.200000" d="M107.21,-60.79C113.26,-61.06 119.42,-61.33 125.26,-61.58"/>
<polygon fill="#000000" fill-opacity="0.200000" stroke="#000000" stroke-width="2" stroke-opacity="0.200000" points="125.37,-63.69 131.45,-61.86 125.55,-59.49 125.37,-63.69"/>
</g>
</g>
</svg>
